<?xml version="1.0" encoding="UTF-8" standalone="no"?>
<!-- Generator: Adobe Illustrator 16.0.0, SVG Export Plug-In . SVG Version: 6.00 Build 0)  -->

<svg
   xmlns:dc="http://purl.org/dc/elements/1.1/"
   xmlns:cc="http://creativecommons.org/ns#"
   xmlns:rdf="http://www.w3.org/1999/02/22-rdf-syntax-ns#"
   xmlns:svg="http://www.w3.org/2000/svg"
   xmlns="http://www.w3.org/2000/svg"
   xmlns:sodipodi="http://sodipodi.sourceforge.net/DTD/sodipodi-0.dtd"
   xmlns:inkscape="http://www.inkscape.org/namespaces/inkscape"
   version="1.1"
   id="Layer_1"
   x="0px"
   y="0px"
   width="226.45399"
   height="74.710503"
   viewBox="0 0 226.45399 74.710503"
   enable-background="new 0 0 612 792"
   xml:space="preserve"
   inkscape:version="0.91 r13725"
   sodipodi:docname="hitmap.svg"><metadata
     id="metadata29"><rdf:RDF><cc:Work
         rdf:about=""><dc:format>image/svg+xml</dc:format><dc:type
           rdf:resource="http://purl.org/dc/dcmitype/StillImage" /><dc:title></dc:title></cc:Work></rdf:RDF></metadata><defs
     id="defs27" /><sodipodi:namedview
     pagecolor="#ffffff"
     bordercolor="#666666"
     borderopacity="1"
     objecttolerance="10"
     gridtolerance="10"
     guidetolerance="10"
     inkscape:pageopacity="0"
     inkscape:pageshadow="2"
     inkscape:window-width="1366"
     inkscape:window-height="674"
     id="namedview25"
     showgrid="false"
     fit-margin-top="0"
     fit-margin-left="0"
     fit-margin-right="0"
     fit-margin-bottom="0"
     inkscape:zoom="0.2979798"
     inkscape:cx="113.89"
     inkscape:cy="37.90775"
     inkscape:window-x="0"
     inkscape:window-y="27"
     inkscape:window-maximized="1"
     inkscape:current-layer="Layer_1" /><g
     id="g3"
     transform="translate(-192.11,-359.19725)"><path
       d="m 279.053,409.185 0,-36.301 3.73,0 0,12.63 c 0,0 4.178,-1.69 7.658,-1.69 6.863,0 8.404,3.38 8.404,12.383 l 0,12.978 -3.73,0 0,-12.93 c 0,-6.562 -0.746,-9 -5.221,-9 -3.332,0 -7.111,1.442 -7.111,1.442 l 0,20.488 -3.73,0 z"
       id="path5"
       inkscape:connector-curvature="0"
       style="fill:#414042" /><path
       d="m 305.049,374.375 3.68,0 0,4.327 -3.68,0 0,-4.327 z m 0,9.946 3.68,0 0,24.864 -3.68,0 0,-24.864 z"
       id="path7"
       inkscape:connector-curvature="0"
       style="fill:#414042" /><path
       d="m 319.723,387.702 0,11.586 c 0,5.421 0.299,6.913 3.58,6.913 1.393,0 4.426,-0.249 4.426,-0.249 l 0.199,3.232 c 0,0 -3.281,0.547 -5.023,0.547 -5.121,0 -6.912,-1.938 -6.912,-9.1 l 0,-23.92 3.73,0 0,7.609 7.857,0 0,3.381 -7.857,0 z"
       id="path9"
       inkscape:connector-curvature="0"
       style="fill:#414042" /><path
       d="m 332.881,409.185 0,-24.864 3.729,0 0,1.691 c 0,0 2.984,-1.791 6.217,-1.99 0.994,-0.099 1.939,-0.148 2.734,-0.05 2.09,0.199 3.582,0.896 4.576,2.089 1.441,-0.547 5.568,-2.237 9,-2.237 6.764,0 8.404,3.232 8.404,12.431 l 0,12.93 -3.729,0 0,-11.785 c 0,-7.61 -0.498,-10.146 -5.223,-10.146 -3.381,0 -6.861,1.791 -6.961,1.84 0.396,1.144 0.596,4.178 0.596,7.16 l 0,12.93 -3.729,0 0,-12.83 c 0,-6.863 -0.697,-9.101 -5.223,-9.101 -3.332,0 -6.664,1.84 -6.664,1.84 l 0,20.09 -3.727,0 z"
       id="path11"
       inkscape:connector-curvature="0"
       style="fill:#414042" /><path
       d="m 391.535,404.162 c 0.1,1.592 1.293,2.09 2.885,2.287 l -0.148,3.231 c -2.984,0 -4.576,-0.545 -5.869,-1.888 0,0 -4.475,1.888 -9.199,1.888 -4.326,0 -6.764,-2.733 -6.764,-7.606 0,-4.774 2.438,-6.913 7.559,-7.361 l 7.857,-0.745 0,-2.039 c 0,-3.133 -1.592,-4.525 -4.326,-4.525 -3.631,0 -9.498,0.647 -9.498,0.647 l -0.148,-3.233 c 0,0 5.967,-0.994 9.797,-0.994 5.27,0 7.855,2.487 7.855,8.105 l 0,12.233 z m -11.039,-6.564 c -3.033,0.299 -4.277,1.84 -4.277,4.377 0,2.885 1.293,4.475 3.531,4.475 3.779,0 8.105,-1.49 8.105,-1.49 l 0,-7.957 -7.359,0.595 z"
       id="path13"
       inkscape:connector-curvature="0"
       style="fill:#414042" /><g
       id="g15"><g
         id="g17"><path
           d="m 224.594,359.249 c -0.12,-0.069 -0.316,-0.069 -0.437,0 l -31.829,18.378 c -0.12,0.069 -0.218,0.239 -0.218,0.378 l 0,37.097 c 0,0.139 0.098,0.309 0.218,0.378 l 31.829,18.376 c 0.12,0.069 0.316,0.069 0.437,0 l 31.833,-18.376 c 0.12,-0.069 0.218,-0.239 0.218,-0.378 l 0,-37.097 c 0,-0.139 -0.098,-0.309 -0.218,-0.378 l -31.833,-18.378 z m 24.776,34.201 c 0,0.139 -0.113,0.252 -0.252,0.252 l -9.652,0 c -0.139,0 -0.252,0.113 -0.252,0.252 l 0,5.304 c 0,0.139 0.113,0.252 0.252,0.252 l 9.652,0 c 0.139,0 0.252,0.113 0.252,0.252 l 0,11.14 c 0,0.139 -0.098,0.309 -0.218,0.378 l -21.646,12.497 c -0.12,0.069 -0.218,0.013 -0.218,-0.126 l 0,-12.019 c 0,-0.139 -0.113,-0.252 -0.252,-0.252 l -5.18,0 c -0.139,0 -0.252,0.113 -0.252,0.252 l 0,12.101 c 0,0.139 -0.098,0.195 -0.218,0.126 L 199.6,411.279 c -0.12,-0.069 -0.218,-0.239 -0.218,-0.378 l 0,-11.14 c 0,-0.139 0.113,-0.252 0.252,-0.252 l 9.793,0 c 0.139,0 0.252,-0.113 0.252,-0.252 l 0,-5.304 c 0,-0.139 -0.113,-0.252 -0.252,-0.252 l -9.793,0 c -0.139,0 -0.252,-0.113 -0.252,-0.252 l 0,-11.246 c 0,-0.139 0.098,-0.309 0.218,-0.378 l 21.786,-12.577 c 0.12,-0.069 0.218,-0.013 0.218,0.126 l 0,12.213 c 0,0.139 0.113,0.252 0.252,0.252 l 5.18,0 c 0.139,0 0.252,-0.113 0.252,-0.252 l 0,-12.134 c 0,-0.139 0.098,-0.195 0.218,-0.126 l 21.646,12.498 c 0.12,0.069 0.218,0.239 0.218,0.378 l 0,11.247 z"
           id="path19"
           inkscape:connector-curvature="0"
           style="fill:#009ad0" /></g></g><path
       d="m 224.444,388.116 c -4.68,0 -8.488,3.808 -8.488,8.491 0,4.68 3.809,8.489 8.488,8.489 4.682,0 8.49,-3.809 8.49,-8.489 0,-4.683 -3.809,-8.491 -8.49,-8.491 z"
       id="path21"
       inkscape:connector-curvature="0"
       style="fill:#414042" /><path
       d="m 398.424,384.321 3.73,0 0,1.739 c 0,0 3.729,-2.236 7.41,-2.236 6.266,0 9,3.73 9,12.63 0,9.746 -3.133,13.227 -10.84,13.227 -2.338,0 -4.875,-0.398 -5.57,-0.547 l 0,11.089 -3.73,0 0,-35.902 z m 3.73,4.872 0,16.61 c 0.646,0.148 3.232,0.547 5.371,0.547 5.469,0 7.26,-2.735 7.26,-9.995 0,-6.715 -2.139,-9.101 -5.719,-9.101 -3.281,0 -6.912,1.939 -6.912,1.939 z"
       id="path23"
       inkscape:connector-curvature="0"
       style="fill:#414042" /></g></svg>