<?xml version="1.0" encoding="UTF-8" standalone="no"?>
<!-- Generator: Adobe Illustrator 16.0.0, SVG Export Plug-In . SVG Version: 6.00 Build 0)  -->

<svg
   xmlns:dc="http://purl.org/dc/elements/1.1/"
   xmlns:cc="http://creativecommons.org/ns#"
   xmlns:rdf="http://www.w3.org/1999/02/22-rdf-syntax-ns#"
   xmlns:svg="http://www.w3.org/2000/svg"
   xmlns="http://www.w3.org/2000/svg"
   xmlns:sodipodi="http://sodipodi.sourceforge.net/DTD/sodipodi-0.dtd"
   xmlns:inkscape="http://www.inkscape.org/namespaces/inkscape"
   version="1.1"
   id="Layer_1"
   x="0px"
   y="0px"
   width="16.241289"
   height="18.115194"
   viewBox="0 0 16.241289 18.115194"
   enable-background="new 0 0 60 72"
   xml:space="preserve"
   inkscape:version="0.91 r13725"
   sodipodi:docname="status_1.svg"><metadata
     id="metadata19"><rdf:RDF><cc:Work
         rdf:about=""><dc:format>image/svg+xml</dc:format><dc:type
           rdf:resource="http://purl.org/dc/dcmitype/StillImage" /><dc:title></dc:title></cc:Work></rdf:RDF></metadata><defs
     id="defs17" /><sodipodi:namedview
     pagecolor="#ffffff"
     bordercolor="#666666"
     borderopacity="1"
     objecttolerance="10"
     gridtolerance="10"
     guidetolerance="10"
     inkscape:pageopacity="0"
     inkscape:pageshadow="2"
     inkscape:window-width="1366"
     inkscape:window-height="674"
     id="namedview15"
     showgrid="false"
     showborder="true"
     fit-margin-top="0"
     fit-margin-left="0"
     fit-margin-right="0"
     fit-margin-bottom="0"
     inkscape:zoom="3.2777778"
     inkscape:cx="-25.006323"
     inkscape:cy="-17.891792"
     inkscape:window-x="0"
     inkscape:window-y="27"
     inkscape:window-maximized="1"
     inkscape:current-layer="Layer_1" /><g
     id="g3"
     transform="matrix(0.62456885,0,0,0.60356822,-13.395128,-9.2027555)"><g
       id="g5"><g
         id="g7"><g
           id="g9"><path
             d="m 34.667,15.299 c -0.12,-0.069 -0.316,-0.069 -0.437,0 l -12.565,7.254 c -0.12,0.069 -0.218,0.239 -0.218,0.378 l 0,14.646 c 0,0.139 0.098,0.309 0.218,0.378 l 12.565,7.254 c 0.12,0.069 0.316,0.069 0.437,0 l 12.565,-7.254 c 0.12,-0.069 0.219,-0.239 0.219,-0.378 l 0,-14.646 c 0,-0.139 -0.099,-0.309 -0.219,-0.378 L 34.667,15.299 Z m 9.852,13.554 c 0,0.139 -0.113,0.252 -0.252,0.252 l -3.588,0 c -0.139,0 -0.252,0.113 -0.252,0.252 l 0,1.836 c 0,0.139 0.113,0.252 0.252,0.252 l 3.588,0 c 0.139,0 0.252,0.113 0.252,0.252 l 0,4.188 c 0,0.139 -0.099,0.309 -0.219,0.378 l -8.461,4.885 c -0.12,0.069 -0.218,0.013 -0.218,-0.126 l 0,-4.542 c 0,-0.139 -0.113,-0.252 -0.252,-0.252 l -1.785,0 c -0.139,0 -0.252,0.113 -0.252,0.252 l 0,4.575 c 0,0.139 -0.098,0.195 -0.218,0.126 l -8.517,-4.918 c -0.12,-0.069 -0.218,-0.239 -0.218,-0.378 l 0,-4.188 c 0,-0.139 0.113,-0.252 0.252,-0.252 l 3.645,0 c 0.139,0 0.252,-0.113 0.252,-0.252 l 0,-1.836 c 0,-0.139 -0.113,-0.252 -0.252,-0.252 l -3.646,0 c -0.139,0 -0.252,-0.113 -0.252,-0.252 l 0,-4.23 c 0,-0.139 0.098,-0.309 0.218,-0.378 l 8.517,-4.917 c 0.12,-0.069 0.218,-0.013 0.218,0.126 l 0,4.62 c 0,0.139 0.113,0.252 0.252,0.252 l 1.785,0 c 0.139,0 0.252,-0.113 0.252,-0.252 l 0,-4.588 c 0,-0.139 0.098,-0.195 0.218,-0.126 l 8.461,4.885 c 0.12,0.069 0.219,0.239 0.219,0.378 l 0,4.23 z"
             id="path11"
             inkscape:connector-curvature="0"
             style="fill:#009ad0" /></g></g><path
         d="m 34.476,26.854 c -1.887,0 -3.42,1.534 -3.42,3.421 0,1.885 1.533,3.42 3.42,3.42 1.887,0 3.42,-1.535 3.42,-3.42 0,-1.886 -1.534,-3.421 -3.42,-3.421 z"
         id="path13"
         inkscape:connector-curvature="0"
         style="fill:#009ad0" /></g></g></svg>