<?xml version="1.0" encoding="iso-8859-1"?>
<!-- Generator: Adobe Illustrator 16.0.0, SVG Export Plug-In . SVG Version: 6.00 Build 0)  -->
<!DOCTYPE svg PUBLIC "-//W3C//DTD SVG 1.1//EN" "http://www.w3.org/Graphics/SVG/1.1/DTD/svg11.dtd">
<svg version="1.1" id="Capa_1" xmlns="http://www.w3.org/2000/svg" xmlns:xlink="http://www.w3.org/1999/xlink" x="0px" y="0px"
	 width="23.304px" height="23.304px" viewBox="0 0 23.304 23.304" style="enable-background:new 0 0 23.304 23.304;"
	 xml:space="preserve">
<g>
	<g>
		<rect x="2.907" y="6.574" width="12.129" height="1.212"/>
		<polygon points="11.551,10.717 2.907,10.717 2.907,11.929 10.302,11.929 		"/>
		<polygon points="2.907,16.075 8.759,16.075 9.02,14.861 2.907,14.861 		"/>
		<path d="M18.17,5.59V4.537c-0.001-1.083-0.888-1.969-1.971-1.969H1.971C0.887,2.568,0,3.454,0,4.537v14.229
			c0,1.084,0.887,1.971,1.971,1.971H16.2c1.083,0,1.97-0.887,1.97-1.971v-6.737l3.326-3.838l-3.186-2.762L18.17,5.59z
			 M16.678,19.046H1.491V5.996V4.63h15.186v1.366v1.317l-5.319,6.14l3.184,2.764l2.138-2.467v5.297H16.678z"/>
		<path d="M23.031,5.344l-2.123-1.838c-0.29-0.254-0.705-0.26-0.916-0.016l-1.33,1.535l3.188,2.761l1.328-1.535
			C23.393,6.008,23.324,5.595,23.031,5.344z"/>
		<polygon points="10.008,17.955 10.171,18.095 14.184,16.634 10.997,13.871 		"/>
	</g>
</g>
<g>
</g>
<g>
</g>
<g>
</g>
<g>
</g>
<g>
</g>
<g>
</g>
<g>
</g>
<g>
</g>
<g>
</g>
<g>
</g>
<g>
</g>
<g>
</g>
<g>
</g>
<g>
</g>
<g>
</g>
</svg>
